<?xml version="1.0" encoding="utf-8"?>
<!-- Generator: Adobe Illustrator 24.0.0, SVG Export Plug-In . SVG Version: 6.00 Build 0)  -->
<svg version="1.1" id="Camada_1" xmlns="http://www.w3.org/2000/svg" xmlns:xlink="http://www.w3.org/1999/xlink" x="0px" y="0px"
	 viewBox="0 0 241.9 139.4" style="enable-background:new 0 0 241.9 139.4;" xml:space="preserve">
<style type="text/css">
	.st0{fill-rule:evenodd;clip-rule:evenodd;fill:#4E73DF;}
	.st1{fill:#EE4D64;}
</style>
<path class="st0" d="M217.9,41.4c-2.5,0-4.8,0.6-6.9,1.6c-0.5-8.3-7.5-14.9-15.9-14.9c-2.5,0-4.8,0.6-6.9,1.6
	c-0.6-8.2-7.5-14.8-15.9-14.8c-8.8,0-15.9,7.1-15.9,15.9v26.4c0,2.5,2,4.5,4.5,4.5c2.5,0,4.5-2,4.5-4.5V30.8c0-3.8,3.1-6.9,6.9-6.9
	c3.8,0,6.9,3.1,6.9,6.9v72.7v13.2c0,3.8-3.1,6.9-6.9,6.9c-3.8,0-6.9-3.1-6.9-6.9V90.3c0-2.5-2-4.5-4.5-4.5H99.7
	c-2.5,0-4.5,2-4.5,4.5s2,4.5,4.5,4.5h56.7v21.9c0,8.8,7.1,15.9,15.9,15.9c8.4,0,15.3-6.5,15.9-14.8c2.1,1,4.4,1.6,6.9,1.6
	c8.4,0,15.4-6.6,15.9-14.9c2.1,1,4.4,1.6,6.9,1.6c8.8,0,15.9-7.1,15.9-15.9V57.4C233.9,48.6,226.7,41.4,217.9,41.4z M202,103.5
	c0,3.8-3.1,6.9-6.9,6.9c-3.8,0-6.9-3.1-6.9-6.9V44c0-3.8,3.1-6.9,6.9-6.9c3.8,0,6.9,3.1,6.9,6.9V103.5z M217.9,97
	c3.8,0,6.9-3.1,6.9-6.9V57.4c0-3.8-3.1-6.9-6.9-6.9c-3.8,0-6.9,3.1-6.9,6.9v32.8C211.1,93.9,214.1,97,217.9,97z"/>
<path class="st0" d="M85.6,85.5c-2.5,0-4.5,2-4.5,4.5v26.4c0,3.8-3.1,6.9-6.9,6.9c-3.8,0-6.9-3.1-6.9-6.9v-13.2V43.8V30.6
	c0-3.8,3.1-6.9,6.9-6.9c3.8,0,6.9,3.1,6.9,6.9V57c0,2.5,2,4.5,4.5,4.5h61.2c2.5,0,4.5-2,4.5-4.5c0-2.5-2-4.5-4.5-4.5H90.1V30.6
	c0-8.8-7.1-15.9-15.9-15.9c-8.4,0-15.3,6.5-15.9,14.8c-2.1-1-4.4-1.6-6.9-1.6c-8.4,0-15.4,6.6-15.9,14.9c-2.1-1-4.4-1.6-6.9-1.6
	c-8.8,0-15.9,7.1-15.9,15.9v32.7c0,8.8,7.1,15.9,15.9,15.9c2.5,0,4.8-0.6,6.9-1.6c0.5,8.3,7.5,14.9,15.9,14.9c2.5,0,4.8-0.6,6.9-1.6
	c0.6,8.2,7.5,14.8,15.9,14.8c8.8,0,15.9-7.1,15.9-15.9V90.1C90.1,87.6,88.1,85.5,85.6,85.5z M28.6,96.8c-3.8,0-6.9-3.1-6.9-6.9V57.2
	c0-3.8,3.1-6.9,6.9-6.9c3.8,0,6.9,3.1,6.9,6.9v32.7C35.5,93.7,32.4,96.8,28.6,96.8z M44.5,103.3c0,3.8,3.1,6.9,6.9,6.9
	c3.8,0,6.9-3.1,6.9-6.9V43.8c0-3.8-3.1-6.9-6.9-6.9c-3.8,0-6.9,3.1-6.9,6.9V103.3z"/>
<path class="st1" d="M81,73.8v1.5c0,2.5,2,4.5,4.5,4.5c2.5,0,4.5-2,4.5-4.5v-1.5c0-2.5-2-4.5-4.5-4.5C83.1,69.3,81,71.3,81,73.8z"/>
<path class="st1" d="M164.5,73v-1.5c0-2.5-2-4.5-4.5-4.5c-2.5,0-4.5,2-4.5,4.5V73c0,2.5,2,4.5,4.5,4.5
	C162.5,77.5,164.5,75.5,164.5,73z"/>
</svg>
