<?xml version="1.0" encoding="utf-8"?>
<!-- Generator: Adobe Illustrator 24.0.0, SVG Export Plug-In . SVG Version: 6.00 Build 0)  -->
<svg version="1.1" id="Camada_1" xmlns="http://www.w3.org/2000/svg" xmlns:xlink="http://www.w3.org/1999/xlink" x="0px" y="0px"
	 viewBox="0 0 131.6 258.3" style="enable-background:new 0 0 131.6 258.3;" xml:space="preserve">
<style type="text/css">
	.st0{fill-rule:evenodd;clip-rule:evenodd;fill:#FFFFFF;}
	.st1{fill:#FFFFFF;}
</style>
<path class="st0" d="M40.4,41.8c0,2.5,0.6,4.8,1.6,6.9C33.6,49.3,27,56.2,27,64.6c0,2.5,0.6,4.8,1.6,6.9
	c-8.2,0.6-14.8,7.5-14.8,15.9c0,8.8,7.1,15.9,15.9,15.9h26.4c2.5,0,4.5-2,4.5-4.5c0-2.5-2-4.5-4.5-4.5H29.7c-3.8,0-6.9-3.1-6.9-6.9
	c0-3.8,3.1-6.9,6.9-6.9h72.7h13.2c3.8,0,6.9,3.1,6.9,6.9c0,3.8-3.1,6.9-6.9,6.9H89.2c-2.5,0-4.5,2-4.5,4.5V160c0,2.5,2,4.5,4.5,4.5
	s4.5-2,4.5-4.5v-56.7h21.9c8.8,0,15.9-7.1,15.9-15.9c0-8.4-6.5-15.3-14.8-15.9c1-2.1,1.6-4.4,1.6-6.9c0-8.4-6.6-15.4-14.9-15.9
	c1-2.1,1.6-4.4,1.6-6.9c0-8.8-7.1-15.9-15.9-15.9H56.3C47.5,25.9,40.4,33.1,40.4,41.8z M102.4,57.8c3.8,0,6.9,3.1,6.9,6.9
	c0,3.8-3.1,6.9-6.9,6.9H42.9c-3.8,0-6.9-3.1-6.9-6.9c0-3.8,3.1-6.9,6.9-6.9H102.4z M95.9,41.8c0-3.8-3.1-6.9-6.9-6.9H56.3
	c-3.8,0-6.9,3.1-6.9,6.9c0,3.8,3.1,6.9,6.9,6.9h32.8C92.8,48.7,95.9,45.6,95.9,41.8z"/>
<path class="st0" d="M84.5,174.2c0,2.5,2,4.5,4.5,4.5h26.4c3.8,0,6.9,3.1,6.9,6.9c0,3.8-3.1,6.9-6.9,6.9h-13.2H42.7H29.5
	c-3.8,0-6.9-3.1-6.9-6.9c0-3.8,3.1-6.9,6.9-6.9h26.4c2.5,0,4.5-2,4.5-4.5V113c0-2.5-2-4.5-4.5-4.5c-2.5,0-4.5,2-4.5,4.5v56.7H29.5
	c-8.8,0-15.9,7.1-15.9,15.9c0,8.4,6.5,15.3,14.8,15.9c-1,2.1-1.6,4.4-1.6,6.9c0,8.4,6.6,15.4,14.9,15.9c-1,2.1-1.6,4.4-1.6,6.9
	c0,8.8,7.1,15.9,15.9,15.9h32.7c8.8,0,15.9-7.1,15.9-15.9c0-2.5-0.6-4.8-1.6-6.9c8.3-0.5,14.9-7.5,14.9-15.9c0-2.5-0.6-4.8-1.6-6.9
	c8.2-0.6,14.8-7.5,14.8-15.9c0-8.8-7.1-15.9-15.9-15.9H89C86.5,169.6,84.5,171.7,84.5,174.2z M95.7,231.2c0,3.8-3.1,6.9-6.9,6.9
	H56.1c-3.8,0-6.9-3.1-6.9-6.9c0-3.8,3.1-6.9,6.9-6.9h32.7C92.6,224.3,95.7,227.4,95.7,231.2z M102.2,215.2c3.8,0,6.9-3.1,6.9-6.9
	c0-3.8-3.1-6.9-6.9-6.9H42.7c-3.8,0-6.9,3.1-6.9,6.9c0,3.8,3.1,6.9,6.9,6.9H102.2z"/>
<path class="st1" d="M72.7,178.7h1.5c2.5,0,4.5-2,4.5-4.5s-2-4.5-4.5-4.5h-1.5c-2.5,0-4.5,2-4.5,4.5S70.2,178.7,72.7,178.7z"/>
<path class="st1" d="M71.9,95.2h-1.5c-2.5,0-4.5,2-4.5,4.5c0,2.5,2,4.5,4.5,4.5h1.5c2.5,0,4.5-2,4.5-4.5
	C76.4,97.3,74.4,95.2,71.9,95.2z"/>
</svg>
