<svg id="Camada_1" data-name="Camada 1" xmlns="http://www.w3.org/2000/svg" viewBox="0 0 517.13 176.81"><defs><style>.cls-1,.cls-3{fill:#4e73df;}.cls-1{fill-rule:evenodd;}.cls-2{fill:#ee4d64;}.cls-3{font-size:50.01px;font-family:LouisGeorgeCafe-Bold, Louis George Café;font-weight:700;}</style></defs><title>logo</title><path class="cls-1" d="M521.49,150.81a20.44,20.44,0,0,0-8.84,2,20.45,20.45,0,0,0-20.38-19.13,20.24,20.24,0,0,0-8.85,2,20.42,20.42,0,0,0-40.78,1.48V171a5.82,5.82,0,0,0,11.63,0V137.19a8.79,8.79,0,1,1,17.58,0V247.26a8.79,8.79,0,0,1-17.58,0V213.41a5.81,5.81,0,0,0-5.81-5.82H370a5.82,5.82,0,0,0,0,11.63h72.62v28a20.42,20.42,0,0,0,40.78,1.47,20.24,20.24,0,0,0,8.85,2,20.45,20.45,0,0,0,20.38-19.13,20.42,20.42,0,0,0,29.26-18.41v-42A20.44,20.44,0,0,0,521.49,150.81Zm-20.42,79.52a8.8,8.8,0,0,1-17.59,0V154.11a8.8,8.8,0,0,1,17.59,0ZM521.49,222a8.8,8.8,0,0,0,8.79-8.79v-42a8.79,8.79,0,1,0-17.58,0v42A8.8,8.8,0,0,0,521.49,222Z" transform="translate(-24.78 -90.87)"/><path class="cls-1" d="M118.23,181.69a5.83,5.83,0,0,0-5.82,5.82v33.85a8.79,8.79,0,1,1-17.58,0V111.29a8.79,8.79,0,1,1,17.58,0v33.85a5.82,5.82,0,0,0,5.82,5.81h78.43a5.82,5.82,0,1,0,0-11.63H124v-28a20.42,20.42,0,0,0-40.78-1.48A20.42,20.42,0,0,0,54,126.93a20.4,20.4,0,0,0-29.25,18.41v42A20.42,20.42,0,0,0,54,205.72a20.45,20.45,0,0,0,20.38,19.13,20.21,20.21,0,0,0,8.85-2A20.42,20.42,0,0,0,124,221.36V187.51A5.82,5.82,0,0,0,118.23,181.69Zm-73,14.41a8.8,8.8,0,0,1-8.79-8.79v-42a8.79,8.79,0,1,1,17.58,0v42A8.8,8.8,0,0,1,45.2,196.1Zm20.42,8.33a8.79,8.79,0,0,0,17.58,0V128.21a8.79,8.79,0,0,0-17.58,0Z" transform="translate(-24.78 -90.87)"/><path class="cls-2" d="M112.4,166.66v2a5.82,5.82,0,1,0,11.63,0v-2a5.82,5.82,0,0,0-11.63,0Z" transform="translate(-24.78 -90.87)"/><path class="cls-2" d="M453.06,191.2v-1.95a5.82,5.82,0,1,0-11.63,0v1.95a5.82,5.82,0,0,0,11.63,0Z" transform="translate(-24.78 -90.87)"/><text class="cls-3" transform="translate(110.92 106.24)">KambaSport</text></svg>